<svg width="107" height="52" viewBox="0 0 107 52" fill="none" xmlns="http://www.w3.org/2000/svg">
  <path
    d="M50.3607 38.6375C49.8816 38.2624 49.5337 37.7382 49.3755 37.1507C49.2083 36.5768 48.431 36.3328 47.3826 37.3405C45.1366 39.4871 42.2851 40.8971 39.2166 41.3806C35.0591 41.9364 32.3431 40.5852 29.4012 39.6633C26.4593 38.7415 26.5361 40.183 26.622 40.6621C26.631 40.6847 26.6536 40.6982 26.6807 40.6892C26.6943 40.6892 26.7033 40.6756 26.7079 40.6621C27.1598 39.817 29.6633 41.9861 33.5271 43.6853C39.2347 46.2024 43.9797 45.4929 46.9804 44.1372C49.2716 43.0888 51.4995 41.2089 51.6079 39.939C51.6712 39.0081 50.8894 39.0442 50.3607 38.6375Z"
    fill="#FF0000" />
  <path
    d="M55.4146 34.4241C54.5198 33.9903 53.4533 34.1755 52.7529 34.876C52.3914 35.1788 52.0886 35.477 51.8174 35.7437C51.117 36.4215 50.6425 36.887 49.9782 36.7243H49.9375C49.9737 36.8056 50.0053 36.887 50.0324 36.9683C50.1544 37.4157 50.412 37.8134 50.7735 38.1026C50.8684 38.1704 50.9678 38.2246 51.0763 38.2698L51.1351 38.2969C51.2525 38.3512 51.4152 38.428 51.5598 38.5138H51.5824C51.8988 37.1129 52.4637 36.0329 53.2364 35.4002C54.3526 34.4964 55.3152 35.4499 55.496 35.6533C55.8168 35.3776 55.8575 34.8941 55.5818 34.5687C55.5321 34.5099 55.4779 34.4648 55.4146 34.4241Z"
    fill="#088D00" />
  <path
    d="M84.9518 21.5138C84.9518 19.7604 83.7995 18.608 82.2404 18.608C79.5515 18.608 76.5599 23.3033 74.6393 26.7197C75.4482 23.5564 76.6865 21.8979 76.6865 20.7455C76.6865 19.1232 76.0899 18.608 74.9376 18.608C73.3604 18.608 71.6929 19.6338 71.2229 22.4492C71.006 23.7778 70.7122 25.0929 70.3507 26.3898C67.9737 29.0516 65.1357 31.5054 62.126 31.5054C59.5637 31.5054 58.8813 30.0548 58.7096 28.2607H58.8813C65.6599 28.2607 68.5747 24.8488 68.5747 22.0696C68.5747 20.1942 66.7671 18.6125 64.3901 18.6125C60.0066 18.6125 56.5359 22.0696 55.126 25.9967C54.4391 25.7752 53.7748 25.4905 53.1421 25.1471C53.6121 24.0218 53.8742 22.8243 53.9239 21.6041C53.9239 19.2542 52.6631 18.2781 51.104 18.2781C49.1563 18.1787 47.4933 19.679 47.3939 21.6267C47.3939 21.7036 47.3893 21.7804 47.3939 21.8572C47.3939 23.7371 48.6411 25.0657 50.4126 26.1548C49.0026 28.803 46.8832 30.57 45.2608 30.57C44.0633 30.57 43.765 28.9024 43.765 27.4925C43.7696 26.8056 43.8283 26.1232 43.9368 25.4454C43.9368 25.4454 46.2867 22.1148 46.2867 20.1083C46.2867 19.2542 45.8348 18.6125 44.6191 18.6125C42.224 18.6125 40.6152 22.2639 39.9781 26.1142C37.5694 28.8753 34.6365 31.5054 31.5184 31.5054C28.956 31.5054 28.2737 30.0548 28.1019 28.2607H28.2737C35.0523 28.2607 37.9626 24.8488 37.9626 22.0696C37.9626 20.1942 36.1549 18.6125 33.7779 18.6125C28.0161 18.6125 23.8359 24.5912 23.8359 29.7565C23.8314 33.2091 26.0955 35.1207 29.1413 35.1207C33.0413 35.1207 36.3267 32.7708 39.6934 28.8708V29.7385C39.6934 33.1956 41.0491 35.1207 43.1504 35.1207C46.3138 35.1207 50.625 31.5642 52.4597 26.9864C53.1783 27.2846 53.9149 27.5332 54.6695 27.732C54.543 28.3918 54.4797 29.0606 54.4752 29.7294C54.4481 33.2091 56.7077 35.1207 59.7354 35.1207C63.3507 35.1207 66.4191 33.1097 69.5283 29.7294C69.0763 31.4557 68.9046 31.7585 68.9046 33.069C68.9046 34.6507 69.6729 35.1207 70.7846 35.1207C73.4282 35.1207 74.6258 30.9767 75.3533 29.0561C76.3746 26.3446 78.467 22.865 79.5787 22.865C79.9628 22.865 80.1752 23.3169 80.1752 23.9767C80.1752 24.4014 80.0486 24.659 80.0486 24.9121C80.0486 25.364 80.3062 25.5538 80.8576 25.5538C82.3534 25.5674 84.9564 23.8592 84.9564 21.5138H84.9518ZM62.7632 21.4279C63.6173 21.4279 64.259 21.9386 64.259 23.0502C64.259 26.1232 60.9285 26.5932 58.9627 26.5932H58.7051C58.9627 23.222 61.2222 21.4279 62.7632 21.4279ZM32.151 21.4279C33.0051 21.4279 33.6468 21.9386 33.6468 23.0502C33.6468 26.1232 30.3163 26.5932 28.355 26.5932H28.0974C28.355 23.222 30.6145 21.4279 32.151 21.4279ZM51.3119 24.1981C50.5482 23.6965 49.5856 22.8107 49.7302 21.7533C49.9019 20.4473 50.6566 20.2303 51.0859 20.2303C51.5152 20.2303 51.9897 20.5738 51.9897 21.5861C51.9988 22.0651 51.687 23.6965 51.3119 24.1981Z"
    fill="black" />
  <path
    d="M25.3406 38.9196C20.3696 36.5426 21.1017 31.2959 21.6169 28.1823C21.7706 27.0299 22.0055 25.8911 22.3174 24.7749C22.6021 24.3772 22.9997 23.8711 23.4788 23.2294C26.2354 19.6141 31.5363 12.718 31.5363 7.47592C31.5363 5.5508 30.768 4.39844 28.8248 4.39844C23.9578 4.39844 18.4987 18.5883 16.9803 26.6142C16.9803 26.6594 16.9803 26.7 16.9577 26.7407C14.6259 29.303 11.8512 31.5987 9.01774 31.5987C7.01127 31.5987 5.85439 30.0216 5.85439 27.7168C5.85439 25.1093 7.73432 21.5257 9.65493 21.5257C10.2514 21.5257 10.509 21.6929 10.509 21.824C10.509 22.077 9.99386 22.3798 9.99386 23.7852C10.0074 25.0461 11.0378 26.0538 12.2986 26.0448C14.287 25.9454 15.8415 24.2823 15.8009 22.2894C15.8009 20.1519 14.052 18.6154 11.7021 18.6154C5.54257 18.6154 1.57031 24.5896 1.57031 29.7549C1.57031 31.9331 2.76787 35.1236 6.82147 35.1236C10.4638 35.1236 13.4916 33.0719 16.5781 29.6239V30.0893C16.4832 37.4102 21.7886 39.8008 25.0695 40.1443C25.3316 40.1714 25.5801 40.0177 25.6795 39.7737C25.8106 39.4438 25.6615 39.0687 25.3406 38.9196ZM28.4769 10.5444C28.6892 10.5444 28.7751 10.7161 28.7751 10.9963C28.7751 12.2345 26.728 16.0757 23.8674 20.179C23.8674 20.1564 27.329 10.5444 28.4769 10.5444Z"
    fill="black" />
  <path
    d="M89.8464 17.5547C89.0556 17.5547 88.4139 18.4585 88.4139 19.5521C88.3461 20.1034 88.7392 20.6051 89.2906 20.6728C89.3267 20.6728 89.3629 20.6774 89.399 20.6819C90.1989 20.6819 90.8044 19.7781 90.8044 18.7025C90.8044 17.9976 90.4339 17.5547 89.8464 17.5547Z"
    fill="#FF0000" />
  <path
    d="M100.77 12.7079H84.7274C83.3671 12.7079 82.2012 13.684 81.9662 15.0216L81.4375 17.95C81.5595 17.9229 81.677 17.9003 81.799 17.8822H81.8623C81.9843 17.8686 82.1063 17.8596 82.2283 17.8596C84.2438 17.8596 85.7035 19.3961 85.7035 21.511C85.7035 21.6601 85.6945 21.8138 85.6764 21.9629V22.0533C85.6583 22.1979 85.6312 22.338 85.595 22.4781C85.595 22.5052 85.595 22.5278 85.595 22.5549C85.5589 22.6815 85.5182 22.8035 85.473 22.9255V22.9888C85.4188 23.1153 85.36 23.2418 85.2968 23.3684L85.2426 23.4678C85.1793 23.5853 85.1115 23.7028 85.0347 23.8203L84.9804 23.8926C84.9172 23.9875 84.8539 24.0778 84.7816 24.1682L84.7003 24.2722C84.6189 24.3671 84.5376 24.462 84.4517 24.5523L84.3387 24.6698L84.1354 24.8642L83.9727 25.0043L83.7603 25.1805L83.6112 25.2935L83.3355 25.4833H99.4505C100.806 25.5059 101.986 24.5523 102.257 23.2237L103.585 16.0158C103.866 14.4929 102.858 13.0332 101.335 12.7531C101.15 12.7169 100.96 12.7034 100.77 12.7079ZM89.852 22.1527C89.0566 22.2024 88.3246 21.7325 88.0444 20.9868H88.0082L87.9269 21.3709C87.8501 21.8499 87.3982 22.1708 86.9191 22.094C86.4401 22.0172 86.1193 21.5652 86.1961 21.0862C86.2006 21.0591 86.2051 21.032 86.2142 21.0049L87.484 15.0262C87.5699 14.5336 88.0353 14.2037 88.5279 14.2895C89.0205 14.3754 89.3504 14.8409 89.2645 15.3334C89.2645 15.356 89.2555 15.3786 89.251 15.4012L88.903 17.0462H88.9482C89.3368 16.4587 90.0102 16.1152 90.7151 16.1424C91.9443 16.1424 92.7126 17.01 92.7126 18.438C92.7126 20.4942 91.506 22.1527 89.852 22.1527ZM98.7681 17.471L96.2826 22.1346C95.4828 23.644 94.5112 24.2089 92.9385 24.2089H92.7894C92.5137 24.2179 92.2833 24.0055 92.2742 23.7299C92.2742 23.6756 92.2742 23.6259 92.2923 23.5762L92.351 23.296C92.4369 22.9933 92.7035 22.7809 93.0154 22.7673C93.5712 22.7673 93.9192 22.5911 93.987 22.1572C93.987 22.1256 94.0321 21.9946 94.0276 21.972L93.4718 17.2224C93.4356 16.7253 93.8107 16.287 94.3078 16.2508C94.8049 16.2147 95.2433 16.5898 95.2794 17.0868L95.4014 20.6072H95.4376L97.2452 16.7118C97.426 16.2734 97.9321 16.0655 98.3705 16.2508C98.8088 16.4316 99.0167 16.9377 98.8314 17.3761C98.8178 17.4077 98.7998 17.4439 98.7817 17.4755H98.7681V17.471Z"
    fill="#FF0000" />
</svg>
